<svg xmlns="http://www.w3.org/2000/svg" viewBox="0 0 24 24">
    <defs>
        <linearGradient id="g" x1="0%" y1="0%" x2="100%" y2="100%">
            <stop offset="0%" stop-color="#10B981" />
            <stop offset="100%" stop-color="#06B6D4" />
        </linearGradient>
    </defs>
    <path fill="url(#g)" opacity="0.5" d="M11.013 12v9.754a13 13 0 0 1 -8.733 -9.754h8.734z"/>
    <path fill="url(#g)" d="M20.297 15.794a13 13 0 0 1 -7.283 5.951l-.001 -9.745h8.708a12.96 12.96 0 0 1 -1.424 3.794z"/>
    <path fill="url(#g)" d="M11.013 2.526l-.001 7.474h-8.986c-.068 -1.432 .101 -2.88 .514 -4.282a1 1 0 0 1 1.005 -.717a11 11 0 0 0 7.192 -2.256l.276 -.219z"/>
    <path fill="url(#g)" opacity="0.5" d="M13.012 10v-7.453l-.09 -.073a11 11 0 0 0 7.189 2.537l.342 -.01a1 1 0 0 1 1.005 .717c.413 1.403 .582 2.85 .514 4.282h-8.96z"/>
</svg>
